<?xml version="1.0" encoding="utf-8"?>
<!-- Generator: Adobe Illustrator 18.0.0, SVG Export Plug-In . SVG Version: 6.00 Build 0)  -->
<!DOCTYPE svg PUBLIC "-//W3C//DTD SVG 1.1//EN" "http://www.w3.org/Graphics/SVG/1.1/DTD/svg11.dtd">
<svg version="1.1" id="Layer_1" xmlns="http://www.w3.org/2000/svg" xmlns:xlink="http://www.w3.org/1999/xlink" x="0px" y="0px"
	 viewBox="0 0 62.7 28.5" enable-background="new 0 0 62.7 28.5" xml:space="preserve">
<g>
	<path fill="#FFFFFF" d="M30,1.9L18.5,17.6c-1,1.4-2.7,2.2-4.4,2.2c-3.1,0-5.6-2.5-5.6-5.6c0-3.2,2.3-5.6,5.3-5.6
		c1.7,0,2.2,0.2,2.8,0.7c1.9,1.4,4.5,1,5.9-0.8c1.4-1.8,1-4.5-0.8-5.9c-2.8-2.1-5.4-2.4-7.8-2.4c-7.7,0-13.7,6.1-13.7,14
		c0,7.7,6.3,14,14,14c4.4,0,8.6-2.1,11.2-5.6c0,0,11.5-15.7,11.5-15.7c1.4-1.9,1-4.5-0.9-5.9C34-0.3,31.4,0.1,30,1.9z"/>
	<path fill="#FFFFFF" d="M24.8,25.5c1.2,1.7,3.1,2.8,5.3,2.8c2,0,3.9-0.9,5-2.4l0.3-0.4c0,0,13.9-18.7,13.9-18.7
		c1.4-1.9,1-4.5-0.9-5.9c-1.9-1.4-4.5-1-5.9,0.9L24.8,25.5z"/>
	<path fill="#FFFFFF" d="M37.2,25.5c1.2,1.7,3.1,2.8,5.3,2.8c2,0,3.9-0.9,5-2.4l0.3-0.4c0,0,13.9-18.7,13.9-18.7
		c1.4-1.9,1-4.5-0.9-5.9c-1.9-1.4-4.5-1-5.9,0.9L37.2,25.5z"/>
</g>
</svg>
